<?xml version="1.0" standalone="no"?>
<!DOCTYPE svg PUBLIC "-//W3C//DTD SVG 20010904//EN"
 "http://www.w3.org/TR/2001/REC-SVG-20010904/DTD/svg10.dtd">
<svg version="1.0" xmlns="http://www.w3.org/2000/svg"
 width="800.000000pt" height="800.000000pt" viewBox="0 0 800.000000 800.000000"
 preserveAspectRatio="xMidYMid meet">
<metadata>
Created by potrace 1.11, written by Peter Selinger 2001-2013
</metadata>
<g transform="translate(0.000000,800.000000) scale(0.100000,-0.100000)"
fill="#000000" stroke="none">
<path d="M3988 7977 c-7 -8 -58 -63 -113 -122 -55 -60 -111 -121 -125 -135
-14 -15 -74 -80 -135 -145 -164 -176 -161 -174 -281 -301 -62 -66 -126 -135
-144 -154 -17 -19 -78 -84 -134 -145 -57 -60 -114 -122 -127 -136 -30 -32
-228 -245 -289 -310 -25 -26 -85 -91 -135 -145 -49 -54 -103 -112 -120 -129
-16 -17 -57 -60 -89 -95 -32 -36 -112 -121 -176 -190 -65 -69 -133 -141 -151
-161 -19 -20 -80 -86 -135 -145 -56 -60 -116 -125 -134 -144 -18 -19 -83 -89
-144 -155 -62 -66 -125 -133 -140 -150 -15 -16 -75 -81 -134 -143 -58 -62
-112 -121 -121 -131 -9 -10 -63 -69 -121 -130 -114 -122 -132 -141 -295 -316
-60 -65 -121 -130 -135 -145 -207 -219 -310 -333 -310 -340 1 -6 40 -49 194
-214 61 -66 125 -134 141 -152 17 -17 75 -80 130 -139 55 -59 114 -122 130
-140 17 -17 77 -83 135 -145 105 -113 129 -139 244 -260 33 -36 108 -117 166
-179 58 -63 121 -130 140 -151 19 -20 82 -88 140 -150 58 -62 116 -125 130
-140 152 -162 252 -269 269 -289 11 -13 71 -77 133 -144 121 -128 131 -139
301 -322 187 -200 223 -239 258 -276 51 -56 240 -258 274 -294 17 -17 71 -76
122 -131 50 -54 108 -117 130 -140 40 -43 230 -247 329 -353 32 -35 79 -85
104 -111 25 -27 87 -94 139 -149 l94 -100 19 21 c10 12 74 80 141 151 67 72
129 138 137 147 8 9 62 68 120 130 58 62 119 127 135 144 94 102 279 300 337
361 37 39 75 80 85 91 10 12 68 75 129 140 62 65 126 135 144 154 83 91 239
258 275 295 22 23 64 68 94 101 30 32 109 118 176 189 67 72 134 144 150 160
36 40 189 204 400 430 57 61 117 125 134 144 18 19 78 84 134 144 56 60 116
124 132 142 17 17 82 87 145 155 63 68 129 138 145 155 134 145 234 252 254
274 13 14 80 86 149 159 69 73 133 142 144 155 11 12 44 48 74 79 l55 57 -57
63 c-32 35 -81 88 -110 118 -29 30 -67 71 -84 90 -18 19 -78 84 -134 144 -116
124 -122 131 -276 296 -63 68 -145 156 -181 194 -37 39 -81 87 -99 106 -18 19
-81 87 -140 150 -59 63 -129 139 -156 168 -27 30 -67 73 -89 96 -22 23 -92 98
-155 166 -63 68 -132 142 -153 164 -22 23 -80 85 -130 140 -51 54 -108 116
-127 136 -19 21 -84 90 -145 155 -60 65 -126 135 -145 156 -19 20 -76 82 -127
136 -51 55 -114 123 -140 150 -26 28 -86 92 -133 143 -47 51 -111 120 -143
154 -32 33 -79 84 -104 111 -25 28 -99 106 -164 175 -64 69 -127 136 -139 150
-12 13 -51 56 -88 95 -62 66 -227 243 -315 338 -159 172 -175 187 -189 174z"/>
</g>
</svg>
